<?xml version='1.0' encoding='utf-8'?>
<svg xmlns="http://www.w3.org/2000/svg" enable-background="new 0 0 4616.4385 5000" version="1.1" viewBox="0 0 4616.4 5e3"> <path d="m4599.2 4264.7c-6.249 1.2339-11.858 3.022-16.463 8.5244-7.9321 9.478-16.118 19.352-31.675 21.737 16.121-19.427 28.986-27.871 38.354-65.834 21.344-86.488 28.808-72.376 26.662-90.537-0.23-1.9473-0.5044-4.0557-3.106-4.2871-8.6938-0.7734-2.374 11.222-7.6465 19.948-6.9771 11.548-24.925 48.765-34.746 42.197-1.8154-1.2139-1.8652-3.4434-1.0146-5.3384 7.0171-15.632 13.749-29.909 22.537-44.777 0.2466-18.385 0.7729-36.787 0.7729-55.174 3.8345-10.348 3.0654-20.821 4.6743-32.28-25.463 4.6204-26.303 73.803-65.267 125.21 12.454-53.721 10.171-48.331 15.169-56.822 18.709-31.782 29.242-79.22 30.843-100.48 3.8179-50.676 6.5303-34.535 8.1333-50.65 1.0239-10.298-8.7051-12.45-14.742-6.7866-8.0347 7.5361-6.4082 19.355-28.723 92.625-2.729 8.9604-4.1753 18.795-10.467 27.087-2.5142-5.4182 10.322-51.013 12.913-99.946 0.3462-6.5386 4.4165-12.1 4.833-19.426 1.2612-22.175 1.1021-44.274 1.2388-66.44 0.0796-12.8-2.4683-24.294-7.1519-35.758-22.659-55.466-16.901-79.176-44.087-124.42-1.2524-2.084-2.356-4.3972-2.894-6.7485-3.8584-16.859-14-30.871-20.848-46.369-11.348-25.681-28.209-48.27-41.558-72.858-3.4312-6.3201-5.6504-16.405-16.986-15.566-2.5845 0.1912-3.0923-3.4326-4.2046-5.5515-14.851-28.291-29.401-56.741-41.497-86.34-14.005-34.272-15.945-16.407-31.398-39.527-19.84-29.684-74.968-73.084-106.35-93.669-61.945-40.638-98.052-47.032-141.16-56.534-59.726-13.166-113.82-36.651-203.18-17.555-11.408 2.4377-22.201 7.8049-33.224 11.968-2.9656 1.1201-5.3545 3.5505-4.5269 6.761 1.7402 6.7534 10.805 3.5852 12.859 3.719 23.093 1.5051 46.331 2.7148 65.688 17.821 10.93 8.5298 22.384 16.607 30.6 28.846-9.3828 2.4402-54.606-43.906-169.18-11.228-56.375 16.079-98.86 52.02-134.42 96.913-26.113 32.97-40.938 71.564-50.948 111.94-2.9277 11.809-6.8149 23.65-6.6206 36.195 1.0593 68.426-2.4683 81.046 8.4426 99.087 6.8508 11.327 0.0242 21.317 5.8074 33.019 6.3218 12.792 12.354 25.751 17.862 38.912 5.1196 12.234 16.294 19.849 22.785 30.474 13.796 22.581 43.575 37.369 49.518 45.393 16.33 22.051 39.263 36.898 45.426 60.892 1.594 6.2061-0.3086 9.4009-5.6509 11.538-12.33 4.9324-24.728 9.7522-37.809 12.264-93.196 17.893-95.603 30.35-114.36 25.116 24.052-23.875 43.559-48.684 62.36-74.754-14.106 4.3518-28.066 8.8076-40.074 16.365-38.156 24.015-82.077 67.29-152.21 67.386-3.1553 0.0042-7.064 1.3933-9.3335-3.3669 76.13-82.7 83.554-73.834 80.443-81.938-1.5503-4.0396-5.6284-2.917-8.936-3.3652-11.305-1.532-20.994 4.8171-31.539 6.3413-50.284 7.2688-85.814 30.736-98.364 30.018 3.9846-9.7588 21.77-15.656 18.745-25.724-1.4656-4.8784-4.8831-4.9897-23.042-2.4089-9.8008 1.3928-18.76 5.4885-28.276 7.5308-14.915 3.2012-29.326 7.9927-42.433 15.537-23.988 13.808-41.811 10.772-77.235 27.946-2.752 1.3342-6.207 3.7107-10.018-1.9924 25.067-21.811 50.876-42.973 78.504-63.374-21.142-12.122-90.027 5.4341-113.45 11.711-10.477 2.8071-35.223 21.247-63.65 29.765-21.554 6.459-43.569 11.571-63.097 23.649-3.9717 2.4563-8.906 6.6465-14.791 2.1147 6.7139-17.415 55.38-41.874 71.817-66.978 1.5032-2.2959 4.7495-4.531 3.1621-7.6504-1.9062-3.7458-5.562-2.657-9.1406-2.3323-49.799 4.5208-75.573 25.546-143.04 52.071-8.2251 3.2339-17.142 4.8147-25.528-0.9258-5.4866-3.7556-64.106-2.2563-107.99 9.7798-2.1255 0.583-4.906 0.9778-7.137-3.9421 22.915-20.488 41.775-46.043 68.585-63.974-18.578-9.3005-103.28 14.068-134.61 19.22-20.874 3.4329-14.194-13.396-28.866-54.145-3.8826-10.783-2.3884-21.981-5.521-32.742-8.1643-28.048-19.222-55.163-20.767-85.195-1.0859-21.099-3.9133-42.149-3.3938-63.377 0.1096-4.489-0.5771-8.813-1.6914-13.15-5.1489-20.045-4.6851-27.706-4.1855-209.96 0.0366-13.306-0.7205-26.903 1.6753-39.851 7.428-40.146-0.3584-47.629 31.54-172.2 5.2678-20.573 37.893-112.55 59.59-145.76 54.515-83.44 98.256-148.3 140.95-235.63 47.421-96.995 104.05-198.18 127.09-333.34 11.921-69.955 9.905-89.01 17.583-114.78 15.25-51.186 14.45-92.746 36.471-136.11 13.15-25.893 17.101-74.343 13.004-99.676-3.1858-19.698-3.4604-40.105-10.064-58.944-5.0112-14.297-10.524-28.435-14.764-43.008-19.925-68.48-33.052-71.742-41.01-97.158 34.098 26.856 37.835 36.42 62.599 78.599 1.5142 2.5791 3.2688 5.438 6.7607 4.436 3.0229-0.8672 4.8108-3.6512 4.7329-6.7549-0.26-10.373 2.3276-34.282-14.99-89.883-14.458-46.42-24.227-41.847-30.75-68.018-4.2312-16.977-10.239-73.201-31.321-100.84-10.793-14.151-21.136-28.577-31.337-44.916 18.844 1.9749 36.987 0.8755 55.035 1.8047 17.223 0.8867 24.394-13.303 24.877-30.481-55.372-12.882-66.39-61.731-77.317-86.134-6.3655-14.217-2.8118-30.255-8.835-44.677-2.5662-6.1445 3.491-8.975 8.6777-8.8293 12.777 0.3588 25.676 0.6777 38.234 2.7621 6.791 1.1271 15.037-1.473 20.094 2.931 17.991 15.668 34.316-1.4978 33.838 17.123-1.1157 43.434 2.5769 62.43-4.7952 80.828-2.1702 5.4158-0.3513 10.627 3.9258 16.116 25.502-84.106-0.553-106.05 24.38-113.79 29.862-9.2792 24.098-11.396 29.759 65.074 0.5327 7.1932 2.2839 13.938 9.2202 20.812 6.2583-25.975-1.1689-26.196-1.9126-85.584-0.0977-7.7971 5.5903-18.534 14.603-16.301 4.2258 1.0466 4.502 4.5588 4.7456 8.1658 6.1265 90.711 1.155 143.52 0.229 249.89-0.1318 15.152 1.3694 30.166 0.2322 45.522-2.7339 36.918 1.6855 73.912 1.6045 110.91-0.0085 3.9312 0.5732 9.8726 4.4395 9.6677 6.0769-0.3217 6.2434 3.6689 7.7847-211.99 0.0881-12.308-2.4104-24.658 0.0532-36.911 2.3596-11.735 2.5295-23.601 1.7837-35.369-5.2798-83.285 3.7056-74.064 0-91.362-2.8274-13.197-1.7278-26.528-1.772-39.807-0.052-15.578 2.1018-18.018 17.266-19.691 20.153-2.2235 18.912-16.252 24.844 0.8822 1.1526 3.3289 1.8147 6.5808 1.8503 10.073 0.4495 43.852 19.015 36.632 18.568 251.16-0.0134 6.4281 2.9241 12.34 1.5051 18.963-3.7632 17.567-0.7009 35.381-1.1594 53.081-0.0671 2.5905 0.9089 4.8114 4.0439 5.0953 4.7991-13.856-1.7014-52.513 7.0652-81.156 0.1863-0.6091-0.6377-53.464-0.7476-97.042-0.0596-23.68-5.0742-47.126-4.6887-70.633 0.509-31.033-9.3152-60.165-13.277-90.324-2.5093-19.103-4.1423-18.888 13.494-28.434 0.8665-0.469 1.8459-0.7561 2.6521-1.3054 4.7007-3.2041 7.5303-10.545 14.3-8.9561 15.057 3.5345 53.244 109.81 57.522 119.81 8.5625 20.023 9.0171 42.272 17.481 62.26 10.084 23.812 11.594 58.661 13.097 66.329 8.948 45.645 7.5737 27.553 10.447 78.504 0.2119 3.7572 1.3914 7.4458 5.5505 7.2631 5.9028-0.2595 5.0378-5.4998 4.3921-9.052-3.0171-16.596-2.2822-33.328-2.7905-50.045-0.7534-24.769-12.094-73.324-11.626-85.862 0.698-18.683-13.084-39.527-28.55-94.354-10.436-36.993-30.343-72.784-49.752-106.48-2.2563-3.9171-3.2292-6.6832 0.041-10.472 8.4199-9.7546 10.127-21.392 19.166-12.743 10.378 9.9301 19.303 21.137 27.606 32.69 62.058 86.345 71.022 124.93 77.258 139.93 12.067 29.028 25.129 57.59 34.491 87.775 4.9058 15.817 9.5847 32.401 20.371 46.093 4.6899-3.8118 2.0251-7.3081 0.9492-11.015-3.3906-11.682-7.9512-23.278-9.3713-35.227-3.2964-27.733-15.41-52.655-24.218-78.477-7.7107-22.608-20.419-43.591-30.182-65.487-46.017-103.2-103.32-120.26-90.597-163.67 0.6348-2.1665-0.9263-5.161 1.8835-6.4885 3.4082-1.6101 5.5579 1.0918 7.5642 3.1149 37.017 37.327 53.339 51.209 98.32 110.88 68.184 90.454 98.986 188.81 99.893 190.71 7.6174 16.014 12.679 32.808 17.308 49.81 0.7627 2.8013-0.4692 7.2417 4.7349 7.3383 2.7715-11.071 0.9751-21.383-1.6882-32.167-5.842-23.655-9.2573-47.994-20.816-69.883-8.708-16.49-10.213-35.693-20.513-51.689-5.531-8.5896-9.8511-18.088-14.422-27.35-29.953-60.7-38.588-63.126-55.316-86.547-29.262-40.97-37.235-41.439-56.927-63.564-14.713-16.531-29.082-33.378-44.137-49.591-15.028-16.183-14.82-16.28 7.3652-23.02 16.662-5.0612 34.071-9.8589 43.473-28.076 9.5027 11.362 21.988 17.503 33.114 25.426 17.616 12.545 34.748 25.914 53.731 36.367 10.004 5.5092 19.826 11.535 27.832 19.249 29.353 28.28 62.031 53.113 87.86 85.124 4.9634 6.1514 10.894 13.037 19.451 15.837 1.5156-3.9857 0.2188-6.0963-1.3647-7.9796-46.315-55.084-78.342-96.819-196.52-176.31-15.19-10.218-14.668-9.6353-5.0999-25.026 4.3208-6.9497 7.8918-6.7476 14.31-4.3302 39.901 15.028 80.644 26.771 120.08 43.059 42.04 17.365 82.947 37.236 122.33 60.008 21.999 12.72 43.514 26.277 64.481 40.635 19.155 13.117 37.99 31.919 58.382 42.232-1.5708-8.3774-7.9346-16.335-14.138-22.195-54.784-51.75-117.49-90.444-185.47-122.88-32.248-15.384-68.824-26.322-103.06-37.46-8.0862-2.6311-72.032-14.764-63.426-31.301 10.237-19.674 0.0479-33.627 17.246-34.792 49.722-3.52 101.72 1.7654 151.26 5.5432 78.391 5.9781 156.19 20.324 231.23 43.981 23.581 7.4342 47.505 14.959 69.281 26.85 20.684 11.294 39.59 25.521 60.048 37.198 2.311 1.319 4.1265 4.6504 7.5972 0.4958-23.43-25.128-52.753-33.542-84.916-54.354-60.197-38.951-141.91-49.714-211.44-60.478-73.254-11.339-147.38-16.262-221.48-16.499-7.957-0.0254-9.3789-2.0837-8.0876-9.6941 0.8157-4.8074 3.0103-9.033 7.5742-10.046 12.422-2.7566 23.867-10.322 36.969-9.1133 20.792 1.9185 43.83-7.2095 64.929-8.3054 25.33-1.3157 50.66-2.6824 76.007-3.6204 49.673-1.8381 99.498-2.063 149.03 2.6091 31.403 2.9622 62.365 8.6511 93.641 12.263 24.772 2.8606 50.254 11.444 75.475 9.9365 7.9792-0.4771 5.9846-7.2957 1.4409-7.1567-10.176 0.311-19.404-4.1716-28.438-7.2441-49.375-16.793-108.97-19.104-160.66-22.792-55.287-3.9443-110.73-4.8228-166.11-6.5098-27.861-0.8486-54.79 5.0938-82.046 8.2314-19.227 2.2134-37.892 9.2078-56.847 13.912-9.0872 2.2554-10.149 1.217-10.747-7.9497-0.7263-11.131 2.2498-22.79-4.6028-33.094-1.583-2.3811-0.5193-4.7083 0.6785-6.9141 5.8357-10.747 5.6125-22.678 6.22-34.31 0.665-12.735-3.4863-24.376-11.518-34.224-9.3057-11.411-18.366-23.214-28.985-33.32-21.798-20.745-42.189-42.851-63.675-63.872-17.678-17.295-3.3047-28.467-2.585-37.324 2.1694-26.707 2.2258-53.412-12.228-77.175-15.233-25.044 10.398-44.751 7.0601-74.976-0.3604-3.2623 0.4517-7.0485 1.8923-10.04 10.718-22.267 1.8135-50.392-4.7031-72.524-5.9268-20.128-22.207-42.67-26.702-60.68-5.9385-23.794-44.853-45.426-30.772-64.368 39.196-52.728 61.611-66.804 139.78-140.77 39.579-37.449 84.587-67.846 130.47-96.856 78.28-49.493 107.92-47.126 116.77-52.515 3.6709-2.2358 0.9927-6.0645-1.8862-5.6375-81.735 12.118-224.17 123.52-288.34 180.08-109.21 96.257-91.801 103.57-120.45 121.02-4.1589 2.5334-10.818-1.7019-7.1887-7.5842 73.021-118.36 288.27-273.14 416.86-304.12 2.8284-0.6814 7.3884-0.5786 6.9773-5.7854-3.7578-2.6121-7.4597-1.2693-11.339-0.3132-83.003 20.461-158.15 73.863-237.01 118.34-13.976 7.8823-23.807 20.736-36.409 29.982-23.151 16.987-41.972 38.653-64.266 56.534-27.205 21.821-51.421 59.366-82.309 86.519-5.2119 4.5818-9.8398 4.2139-14.409 0.2234-4.8352-4.2227-0.9319-7.8228 1.6069-11.447 53.941-77.006 126.13-194.95 275.87-291.11 18.214-11.696 35.47-24.875 54.555-35.224 1.9187-1.0405 3.0327-2.5894 2.3171-4.7705-1.7166-5.2314-7.2241-3.0361-12.694-0.3457-60.413 29.718-113.89 69.471-164.52 113.41-31.42 27.269-57.756 59.287-83.998 91.203-33.433 40.662-3.3401 1.7258-74.083 106.07-3.1521 4.6492-6.3867 9.6348-12.814 10.646-2.2556-4.0112 0.0642-6.3198 1.7908-8.5117 8.6753-11.015 35.304-63.608 41.007-73.345 43.74-74.681 150.02-204.33 261.29-279.18 2.9885-2.0103 8.6443-3.5576 6.0815-8.2168-8.1501-14.816-136.18 92.526-182.18 150.19-101.93 127.77-82.472 110.46-130.06 197.69-1.7908 3.2822-3.1897 7.2803-8.928 8.3199-20.908-22.378-72.914-39.342-81.978-52.354-5.3416-7.6685-12.626-9.4258-19.614-12.923-2.4465-1.2244-6.0996 0.3503-8.8457-5.8723 17.461-7.0894 33.596-16.974 38.882-40.701-18.955 11.97-36.221 20.862-53.429 29.866-7.428 3.8867-13.927 8.9927-23.784 2.9961 3.136-1.8528 5.0073-3.6377 7.1714-4.126 13.393-3.0212 23.685-10.97 34.132-19.396 12.558-10.129 19.238-24.675 29.81-36.163 18.294-19.88-6.2849-24.757 4.8438-45.032 3.8616-7.0359 8.8806-13.914 8.3289-23.141-0.5698-9.5273-0.855-10.725-9.606-9.563-3.166 0.4207-6.2195 3.0894-9.5078 0.3384 14.075-22.432 14.352-24.327 6.7458-48.621-2.4543-7.8394-7.5588-9.7883-2.6785-22.145 9.9883-25.289-2.0505-38.48-2.2517-66.607-0.0632-8.8503 0.7581-18.338-2.0925-26.382-3.8154-10.767-4.1321-21.001-2.6997-31.886 2.1296-16.181-14.78-24.049-30.01-17.63-103.37 43.566-176.54 139.2-325.53 234.52-14.75 9.4365-29.135 19.442-43.929 29.355-32.269-60.505-49.986-88.27-63.838-147.79-1.8931-8.1348-5.2402-15.643-7.1055-23.732-3.1721-13.757-4.3555-27.967-9.4514-41.318-16.016-41.962-0.4609-33.861-33.891-96.994-20.448-38.615-54.876-40.85-97.373-38.142-6.0432 0.385-49.08 22.082-69.362 74.883-55.105 143.46-176.13 252.13-222.55 309-49.649 60.824-202.34 191.51-221.43 247.53-3.1337 9.1968-14.98 12.27-28.616 35.374-13.649 23.126-22.964 48.904-42.484 68.514-9.047 9.0886-16.131 33.678-18.624 39.812-12.784 31.455-29.884 60.98-41.325 93.024-36.319 101.72-33.79 118.32-48.16 171.62-17.636 65.411-17.43 48.296-21.31 106.42-3.7135 55.632-24.853 82.78-67.468 124.37-22.353 21.816-40.162 47.248-60.49 70.58-26.505 30.421-49.295 64.005-70.991 98.195-98.939 155.92-82.372 246.08-178 299.53-32.606 18.227-74.979 17.559-93.954 23.088-37.316 10.873-104.19 22.794-218.76 62.244-49.922 17.19-163.06 58.348-208.31 85.884-26.898 16.367-55.69 29.547-81.896 47.168-8.1705 5.4939-15.254 13.574-24.162 16.771-26.669 9.5707-38.755 30.634-72.74 51.317-48.737 29.661-104.25 99.588-122.96 120.01-46.554 50.8-19.398 44.654-43.829 66.851-18.324 16.648-16.16 21.607-70.016 98.361-53.976 76.925-47.818 97.639-63.558 119.57-16.152 22.509-27.683 47.565-38.31 72.887-8.8936 21.19-11.26 44.561-21.195 65.759-4.313 9.2024-10.08 18.061-12.481 28.257-1.9583 8.3164-6.8127 15.138-11.609 22.094-46.406 67.308-31.216 74.861-42.611 96.098-18.784 35.008-33.229 68.896-44.396 106.81-34.063 115.65-96.188 222.19-136.54 335.82-12.605 35.495-18.509 71.886-29.213 107.52-6.2848 20.922-18.124 40.289-18.11 63.048 0.0015 2.3369-1.0972 4.7891-2.1069 6.9949-25.512 55.732-77.867 345.06-67.491 383.41 9.8577 36.432 1.1161 97.802 4.8224 126.3 3.35 25.754 2.9622 51.944 10.002 77.335 7.2147 26.021 12.258 52.619 19.922 78.566 9.1968 31.135 21.63 61.214 29.604 92.755 6.7433 26.674 13.946 53.249 25.924 78.229 21.066 43.936 26.867 73.048 44.042 107.41 15.192 30.392 33.514 58.962 48.502 89.466 50.029 101.82 141.58 176.43 219.14 257.32 76.104 79.366 155.62 161.86 257.02 208.53 79.365 36.526 171.95 90.962 258.7 105.08 27.676 4.5029 54.729 12.861 82.845 15.017 41.679 3.1958 53.282 8.1777 107.32 25.115 20.951 6.5674 33.214 5.3374 65.244 12.272 35.309 7.6445 53.561 10.748 154.91 0.2144 19.927-2.0708 39.866 0.6519 60.072-1.7847 25.594-3.0859 51.786-1.6045 77.713-1.375 11.464 0.1011 22.463-3.0903 33.836-3.1221 58.967-0.1641 55.638-8.2515 79.82-11.919 43.23-6.5566 71.602-28.51 113.43-31.178 7.7358-0.4937 27.752-14.602 38.263-14.918 68.344-2.0503 23.852 3.8345 101.24 5.2856 46.866 0.8784 93.757 0.3682 140.63 0.8589 20.913 0.2192 40.757-4.1802 60.565-10.358 92.827-28.954 88.834-4.3604 152.09-33.358 4.5745-2.0972 6.9307-7.0005 12.153-8.0498 20.236-4.0664 40.28-9.0752 61.16-9.1895 35.303-0.1924 29.403-12.275 42.814-12.711 22.695-0.7378 44.804-5.2554 66.983-9.5112 10.601-2.0342 21.386-2.3896 31.975-5.4097 34.928-9.9619 39.778-1.0791 75.533-11.268 86.236-24.574 114.45-9.3706 144.74-35.304 18.357-15.717 35.543-1.0029 44.876-1.958 55.603-5.6895 127.61 4.5259 157.35 4.8706 10.106 0.1172 20.489-1.4375 30.626 2.3242 9.8218 3.644 21.015-2.6006 30.814 3.3003 150.33-3.7192 172.31-1.9619 190.62-13.768 4.7363-3.0537 9.3118-4.5278 14.824-5.394 21.379-3.3604 42.594-7.7715 63.98-11.08 19.243-2.9775 14.2-17.21 41.048-16.686 81.225 1.5864 84.762-6.2383 155.06-4.376 3.4548 0.0918 6.9338 0.2334 10.368-0.0527 9.7903-0.8154 21.274 1.0063 28.875-3.561 8.0269-4.8237 15.224-5.1611 23.28-5.2124 11.308-0.0723 22.703-0.5786 33.895 0.6313 6.6099 0.7148 11.565-4.8379 18.597-2.25 12.749 4.6919 26.257 1.3564 39.14 0.2891 19.396-1.6069 35.6-13.182 52.686-21.631 2.6199-1.2959 6.3381-2.7534 7.1025-4.9775 2.4861-7.2339 8.0669-5.9312 13.351-6.1812 12.894-0.6099 25.54 2.5137 38.309 2.7778 169.22 3.5034 239.8-10.331 267.4-9.8423 58.468 1.0356 153.12-13.501 190.16-12.202 9.5286 0.3345 18.319-2.5449 27.436-4.8711 8.9121-2.2744 14.877-9.563 23.572-11.279 66.083-13.04 60.303-4.7495 113.51-29.945 6.7681-3.2051 14.113-3.8237 20.753-7.2407 26.605-13.689 65.836-29.839 87.531-47.952 23.822-19.889 48.253-38.976 73.55-56.939 5.1753-3.6753 11.988-5.5381 16.203-9.9844 13.944-14.711 31.852-25.761 41.444-44.555 11.196-21.936 53.275-61.98 82.615-111.12 5.1313-8.5938 18.643-21.116 15.363-25.461-8.2861-10.981-18.394 5.7544-36.24 17.236-8.4028 5.4062-15.756 13.544-29.601 14.093 82.584-70.922 62.248-78.188 92.71-103.9 1.7407-1.4697 1.6704-3.4609 1.3521-5.394-0.5648-3.4271-3.3876-3.3695-5.7099-2.911z"/> </svg>